<?xml version="1.0" standalone="no"?>
<!DOCTYPE svg PUBLIC "-//W3C//DTD SVG 20010904//EN"
 "http://www.w3.org/TR/2001/REC-SVG-20010904/DTD/svg10.dtd">
<svg version="1.0" xmlns="http://www.w3.org/2000/svg"
 width="200.000000pt" height="200.000000pt" viewBox="0 0 200.000000 200.000000"
 preserveAspectRatio="xMidYMid meet">

<g transform="translate(0.000000,200.000000) scale(0.100000,-0.100000)"
fill="#000000" stroke="none">
<path d="M1360 1971 c-493 -162 -947 -735 -1021 -1289 -16 -119 -6 -338 19
-424 19 -67 19 -68 0 -85 -12 -11 -42 -20 -75 -23 -71 -6 -82 -21 -65 -86 10
-38 10 -49 0 -56 -7 -4 45 -8 115 -8 99 0 127 3 123 13 -18 44 -70 212 -83
271 -26 113 -23 345 6 475 28 129 60 233 69 228 4 -3 16 0 27 4 18 9 18 9 -2
5 -31 -6 -29 4 16 105 155 350 442 652 734 775 52 22 263 61 273 51 9 -9 -123
-98 -203 -138 -50 -25 -90 -43 -88 -39 2 3 0 12 -6 20 -7 13 -9 12 -10 -2 -1
-10 -2 -22 -3 -27 0 -5 -35 -33 -76 -62 -236 -165 -459 -473 -559 -774 -53
-159 -66 -244 -66 -420 0 -143 3 -170 27 -255 63 -221 64 -225 85 -228 21 -3
21 -3 -2 60 -12 35 -32 102 -45 149 l-22 87 41 41 42 42 74 -16 c105 -21 315
-11 323 17 3 11 13 18 28 18 24 0 24 -1 -19 -87 -24 -49 -61 -124 -82 -168
-21 -44 -40 -82 -41 -84 -2 -2 -16 6 -32 18 -37 26 -47 26 -79 2 -17 -14 -31
-18 -46 -12 -24 9 -71 -1 -93 -20 -19 -15 -18 -49 1 -49 8 0 15 6 15 14 0 15
54 39 64 29 12 -12 6 -32 -11 -36 -10 -2 25 -4 78 -5 88 -1 97 0 102 18 4 17
9 18 41 8 20 -6 36 -15 36 -20 0 -13 96 -9 126 4 22 10 28 10 32 0 2 -8 29
-12 83 -12 76 0 80 1 89 26 6 14 10 38 10 53 0 15 9 36 20 46 25 23 28 109 5
143 -12 17 -13 26 -5 42 8 15 8 30 0 54 -13 41 -36 63 -70 68 -14 1 -26 10
-26 18 -1 8 -2 20 -3 26 0 6 -17 18 -36 27 -19 9 -35 21 -35 27 0 5 106 222
235 480 232 464 236 471 282 500 26 17 53 30 60 30 16 0 17 12 1 28 -17 17
-48 15 -48 -3 0 -15 -37 -35 -66 -35 -18 0 -30 28 -18 40 5 5 25 11 44 13 20
2 40 6 45 9 6 3 27 8 48 12 40 7 47 31 10 31 -12 0 -25 3 -29 7 -4 4 28 78 70
163 53 106 75 161 71 175 -6 19 -15 20 -213 20 -199 -1 -210 -2 -292 -29z
m383 -196 c-55 -110 -72 -135 -89 -135 -28 0 -102 -54 -116 -86 -10 -20 -16
-24 -39 -19 -44 10 -95 -18 -119 -64 -22 -44 -29 -47 -61 -30 -27 14 -55 -11
-69 -60 -14 -51 -44 -63 -101 -40 -24 10 -55 18 -69 18 -14 1 -41 10 -60 20
-79 44 -79 44 -118 9 -77 -67 -177 -224 -202 -317 -6 -24 -15 -104 -20 -178
-7 -118 -11 -139 -33 -171 -14 -20 -28 -50 -32 -67 -3 -16 -22 -47 -42 -68
-32 -36 -34 -43 -28 -83 6 -41 5 -44 -16 -44 -22 0 -22 1 -16 118 24 433 274
856 659 1115 176 117 433 209 605 216 l33 1 -67 -135z m-162 -325 c-479 -970
-464 -940 -488 -940 -32 0 -63 17 -63 35 0 7 8 27 17 43 15 27 16 33 3 56 -19
36 -4 75 40 102 69 44 99 75 117 122 9 26 37 79 61 117 56 93 59 137 12 177
l-34 28 21 22 c11 13 24 38 28 56 4 20 20 42 41 58 22 17 34 35 34 50 0 25 6
27 52 24 29 -1 97 30 117 54 7 9 10 23 7 32 -10 27 4 35 28 17 23 -18 24 -19
7 -53z m-81 30 c0 -5 -16 -18 -36 -31 -30 -18 -38 -19 -45 -8 -13 21 -11 26
23 47 24 15 36 18 45 10 7 -6 13 -14 13 -18z m-167 -94 c7 -17 -28 -51 -42
-41 -14 8 -14 28 1 43 16 16 35 15 41 -2z m-354 -12 c12 -9 56 -25 97 -35 99
-25 120 -40 138 -102 8 -28 13 -53 11 -55 -9 -9 -25 11 -25 30 0 33 -69 95
-120 107 -97 24 -119 32 -142 51 -22 18 -22 19 -3 20 11 0 31 -7 44 -16z m40
-59 c151 -54 183 -89 156 -165 -8 -23 -15 -53 -15 -65 0 -12 -7 -28 -15 -35
-8 -7 -15 -8 -15 -3 0 5 -15 7 -32 5 l-33 -5 30 -13 c17 -7 38 -11 48 -8 14 4
17 -1 17 -28 0 -18 5 -50 9 -72 14 -60 0 -83 -71 -116 l-63 -28 -11 77 c-6 42
-21 103 -32 134 -12 32 -22 60 -22 64 0 3 21 3 48 0 l47 -5 -38 15 c-44 19
-44 38 1 38 26 0 35 6 51 35 l18 35 -99 -1 c-94 0 -100 -2 -126 -27 -22 -22
-27 -36 -26 -72 1 -41 -1 -45 -22 -45 -33 0 -59 -44 -58 -97 1 -46 -18 -56
-24 -14 -11 71 98 341 141 349 9 2 70 -16 136 -39 l120 -41 3 -42 3 -41 9 48
c15 88 -35 127 -175 135 -103 6 -116 11 -100 41 15 28 30 27 140 -14z m246
-55 c-3 -5 -10 -10 -16 -10 -5 0 -9 5 -9 10 0 6 7 10 16 10 8 0 12 -4 9 -10z
m-24 -117 c26 -15 29 -23 29 -66 0 -51 -27 -110 -55 -120 -19 -8 -32 52 -14
65 10 7 11 11 2 14 -7 3 -17 21 -23 40 -10 29 -9 39 4 59 20 30 20 30 57 8z
m-291 -12 c0 -15 -32 -51 -46 -51 -18 0 -18 15 2 45 14 21 44 25 44 6z m26
-152 c40 -100 40 -111 -5 -157 -33 -33 -51 -43 -101 -54 -33 -6 -60 -15 -60
-18 0 -4 18 -15 39 -25 43 -19 71 -63 71 -109 0 -24 -3 -26 -27 -20 -43 9
-106 25 -123 29 -26 8 -20 108 8 137 12 14 22 34 22 45 0 53 12 79 41 90 33
13 61 67 52 101 -4 16 1 24 18 31 35 14 41 10 65 -50z m-123 15 c9 -9 -25 -64
-40 -64 -22 0 -24 19 -6 45 18 24 34 31 46 19z m-83 -158 c0 -32 -19 -66 -35
-60 -18 7 -18 14 -5 48 10 28 40 36 40 12z m-46 -167 c-8 -14 -24 -10 -24 6 0
9 6 12 15 9 8 -4 12 -10 9 -15z m260 -25 c9 -23 7 -54 -3 -54 -11 0 -21 25
-21 51 0 23 15 25 24 3z m-144 -64 c11 -7 2 -10 -32 -10 -27 0 -48 5 -48 10 0
13 60 13 80 0z m100 -41 c28 -1 21 -4 -30 -15 -36 -7 -102 -12 -146 -11 -69 2
-85 -1 -103 -18 l-22 -19 11 28 c6 16 13 32 15 37 3 4 58 6 123 3 65 -2 133
-5 152 -5z m-62 -56 c-15 -2 -42 -2 -60 0 -18 2 -6 4 27 4 33 0 48 -2 33 -4z
m-108 -20 c0 -14 12 -15 113 -10 72 4 107 3 97 -3 -17 -10 -62 -17 -161 -23
-64 -4 -67 -3 -78 21 l-12 25 -24 -23 c-27 -25 -32 -21 -15 11 14 25 80 27 80
2z m413 0 c4 -3 2 -12 -4 -20 -11 -13 -14 -13 -26 3 -23 31 -10 38 30 17z
m-213 -63 c0 -6 -30 -9 -72 -8 -67 1 -69 2 -28 8 70 11 100 11 100 0z m175 -6
c21 -8 44 -13 51 -10 10 4 14 -3 14 -20 0 -16 13 -39 33 -59 26 -26 30 -35 19
-42 -10 -6 -15 -29 -15 -76 0 -37 -4 -67 -9 -67 -4 0 -20 -19 -34 -42 -34 -55
-32 -54 -46 -40 -16 16 -48 15 -104 -4 -44 -15 -47 -15 -65 5 -11 12 -26 21
-34 21 -8 0 -15 7 -15 15 0 27 151 335 164 335 2 0 20 -7 41 -16z m-585 -4 c0
-5 -7 -10 -16 -10 -8 0 -12 5 -9 10 3 6 10 10 16 10 5 0 9 -4 9 -10z m725 -16
c16 -25 15 -54 -4 -54 -14 0 -43 50 -37 66 8 21 22 17 41 -12z m33 -177 c3
-32 0 -37 -17 -37 -18 0 -21 6 -21 41 0 33 3 40 18 37 12 -2 18 -14 20 -41z
m-915 -97 c4 -17 0 -20 -24 -20 -44 0 -37 36 7 39 7 1 14 -8 17 -19z m-102
-28 c-16 -5 -41 5 -41 17 0 7 10 6 26 -1 15 -7 21 -14 15 -16z m556 -36 c-4
-11 -54 -12 -64 -2 -3 3 -3 12 0 20 5 13 12 13 37 5 17 -6 29 -16 27 -23z
m406 -8 c-15 -17 -18 -17 -26 -3 -12 23 11 49 30 34 11 -10 11 -15 -4 -31z"/>
<path d="M1131 1084 c0 -11 3 -14 6 -6 3 7 2 16 -1 19 -3 4 -6 -2 -5 -13z"/>
<path d="M1040 1965 c-14 -8 -19 -14 -12 -15 7 0 21 -18 31 -40 16 -37 19 -39
37 -25 10 8 13 15 7 15 -16 0 -46 57 -38 70 8 13 5 12 -25 -5z"/>
<path d="M1126 1913 c-6 -14 -5 -15 5 -6 7 7 10 15 7 18 -3 3 -9 -2 -12 -12z"/>
<path d="M970 1892 c0 -17 4 -34 10 -37 6 -3 7 1 4 9 -3 9 -1 16 5 16 6 0 11
-4 11 -10 0 -5 7 -10 16 -10 8 0 12 -5 8 -11 -4 -7 1 -7 16 1 24 13 27 10 -42
55 l-28 17 0 -30z"/>
<path d="M869 1853 l-27 -18 29 -34 c15 -19 26 -38 23 -43 -4 -5 3 -4 13 3 19
11 18 13 -9 43 -32 35 -36 49 -10 44 9 -2 17 -12 17 -22 0 -22 36 -38 56 -25
11 7 10 10 -8 15 -12 3 -23 15 -25 27 -4 28 -26 32 -59 10z"/>
<path d="M980 1830 c0 -5 5 -10 11 -10 5 0 7 5 4 10 -3 6 -8 10 -11 10 -2 0
-4 -4 -4 -10z"/>
<path d="M1120 1810 c-19 -11 -29 -19 -22 -20 7 0 20 -16 29 -35 18 -38 21
-39 43 -25 10 6 11 10 3 10 -7 0 -20 14 -29 31 -13 26 -13 33 -3 40 7 4 17 5
23 2 5 -3 6 -1 2 5 -9 14 -4 15 -46 -8z"/>
<path d="M817 1814 c-4 -4 5 -20 18 -36 29 -34 31 -46 10 -54 -16 -7 -63 43
-57 60 2 5 -4 4 -12 -3 -14 -12 -13 -16 5 -43 28 -39 45 -44 69 -23 25 23 25
27 -5 63 -13 16 -22 32 -18 36 3 3 4 6 1 6 -2 0 -8 -3 -11 -6z"/>
<path d="M1150 1785 c0 -8 4 -15 10 -15 5 0 7 7 4 15 -4 8 -8 15 -10 15 -2 0
-4 -7 -4 -15z"/>
<path d="M1041 1761 c-13 -10 -21 -24 -18 -32 4 -10 6 -9 6 4 2 28 17 19 37
-22 15 -32 21 -37 35 -28 14 9 15 13 4 21 -7 6 -21 24 -31 40 l-19 30 23 -6
c12 -4 20 -2 16 3 -8 14 -27 10 -53 -10z"/>
<path d="M1807 1732 c-23 -26 -22 -46 3 -39 24 6 37 -10 21 -26 -16 -16 -13
-29 6 -25 31 6 25 108 -7 108 -4 0 -14 -8 -23 -18z"/>
<path d="M702 1717 c-12 -13 -22 -27 -22 -33 0 -5 5 -2 10 6 8 12 14 10 39
-14 17 -16 27 -34 24 -40 -4 -6 1 -5 10 3 16 12 14 16 -13 51 -27 34 -28 39
-13 43 14 4 15 5 2 6 -8 0 -25 -9 -37 -22z"/>
<path d="M987 1723 c-3 -5 4 -15 16 -23 21 -12 21 -12 7 6 -8 10 -15 20 -16
22 -1 2 -4 -1 -7 -5z"/>
<path d="M944 1688 c-4 -5 2 -17 11 -26 10 -10 14 -11 10 -3 -5 10 -2 12 11 8
11 -4 33 -9 49 -13 27 -6 28 -5 15 9 -20 21 -88 39 -96 25z"/>
<path d="M874 1627 c-16 -17 -25 -28 -20 -24 5 4 25 -7 43 -25 32 -31 33 -31
53 -13 11 10 20 25 19 34 0 10 -3 8 -9 -6 -12 -29 -21 -29 -48 0 -27 28 -28
44 -4 49 10 2 13 6 6 10 -6 4 -24 -7 -40 -25z"/>
<path d="M626 1634 c-3 -8 9 -25 29 -40 19 -14 32 -31 29 -38 -4 -6 7 5 24 24
16 19 27 39 24 44 -3 5 -9 0 -13 -12 -11 -29 -18 -28 -56 7 -23 21 -33 25 -37
15z"/>
<path d="M979 1627 c6 -8 7 -18 3 -22 -4 -5 -1 -5 6 -1 10 6 10 11 1 22 -6 8
-14 14 -16 14 -3 0 0 -6 6 -13z"/>
<path d="M910 1615 c0 -8 4 -15 10 -15 5 0 7 7 4 15 -4 8 -8 15 -10 15 -2 0
-4 -7 -4 -15z"/>
<path d="M1910 1620 c0 -5 5 -10 11 -10 5 0 7 5 4 10 -3 6 -8 10 -11 10 -2 0
-4 -4 -4 -10z"/>
<path d="M584 1588 c-4 -7 -4 -10 1 -6 12 12 65 -31 65 -53 0 -26 -17 -24 -56
6 -21 16 -35 21 -39 14 -7 -10 11 -27 52 -50 28 -15 56 4 51 34 -4 28 -64 72
-74 55z"/>
<path d="M800 1555 c-18 -19 -20 -25 -8 -25 9 0 27 -13 41 -29 18 -21 27 -27
35 -19 8 8 7 15 -6 24 -15 12 -13 13 15 14 17 0 35 5 38 10 4 6 -6 10 -23 10
-22 0 -29 4 -28 17 2 28 -37 27 -64 -2z m45 -6 c12 -19 -5 -23 -22 -6 -16 16
-16 17 -1 17 9 0 20 -5 23 -11z"/>
<path d="M1857 1563 c-4 -3 -7 -15 -7 -25 0 -10 -4 -18 -10 -18 -5 0 -10 7
-10 15 0 12 -4 13 -25 3 -30 -14 -31 -22 -5 -48 31 -31 75 -24 90 15 16 41 -9
83 -33 58z"/>
<path d="M518 1495 c-10 -13 -18 -32 -18 -43 0 -22 30 -52 52 -52 16 0 48 30
48 45 0 5 -6 1 -13 -9 -17 -23 -52 -14 -68 17 -10 17 -8 24 10 38 12 10 18 20
14 22 -5 3 -16 -6 -25 -18z"/>
<path d="M738 1478 c-14 -20 -12 -24 19 -51 33 -29 35 -29 51 -12 9 10 12 15
7 12 -6 -3 -17 -2 -25 4 -11 6 -8 9 12 9 15 0 30 5 33 10 3 6 -1 10 -9 10 -8
0 -20 9 -26 20 -14 26 -44 25 -62 -2z m42 -14 c0 -9 -5 -14 -12 -12 -18 6 -21
28 -4 28 9 0 16 -7 16 -16z"/>
<path d="M1925 1471 c-10 -17 15 -45 29 -31 7 7 5 15 -6 26 -11 11 -18 13 -23
5z"/>
<path d="M1751 1456 c-8 -9 -11 -19 -7 -23 9 -9 29 13 24 27 -2 8 -8 7 -17 -4z"/>
<path d="M1825 1434 c-19 -19 -17 -75 3 -82 7 -2 16 5 19 17 6 23 23 29 23 8
0 -8 9 -22 20 -32 20 -18 20 -17 21 11 3 70 -9 94 -47 94 -12 0 -30 -7 -39
-16z"/>
<path d="M682 1408 c-7 -7 -12 -24 -12 -40 0 -50 66 -62 91 -17 23 43 -44 92
-79 57z m68 -48 c0 -26 -31 -26 -55 0 -9 10 -15 26 -11 35 5 14 8 14 36 0 18
-9 30 -23 30 -35z"/>
<path d="M1753 1393 c-18 -7 -16 -43 2 -43 9 0 15 9 15 25 0 14 -1 25 -2 24
-2 0 -9 -3 -15 -6z"/>
<path d="M1705 1380 c-3 -5 -1 -10 4 -10 6 0 11 5 11 10 0 6 -2 10 -4 10 -3 0
-8 -4 -11 -10z"/>
<path d="M1986 1375 c4 -8 8 -15 10 -15 2 0 4 7 4 15 0 8 -4 15 -10 15 -5 0
-7 -7 -4 -15z"/>
<path d="M437 1362 c-45 -49 4 -114 58 -78 32 21 33 59 3 80 -29 21 -41 20
-61 -2z m44 -18 c32 -16 37 -46 8 -52 -24 -4 -64 32 -56 51 8 21 11 21 48 1z"/>
<path d="M622 1329 c-15 -24 -15 -62 0 -77 16 -16 53 -15 67 2 10 12 9 13 -7
9 -46 -12 -84 43 -46 65 9 5 12 12 7 15 -5 3 -14 -3 -21 -14z"/>
<path d="M1742 1308 c-18 -18 -15 -32 16 -61 17 -16 32 -23 40 -18 10 6 10 10
-3 21 -8 7 -15 18 -15 24 0 6 -6 19 -14 28 -10 13 -15 15 -24 6z"/>
<path d="M1930 1310 c0 -5 5 -10 10 -10 6 0 10 5 10 10 0 6 -4 10 -10 10 -5 0
-10 -4 -10 -10z"/>
<path d="M353 1269 c-17 -17 -16 -30 0 -23 8 3 20 -2 27 -11 16 -19 86 -20 93
-1 3 7 0 13 -6 13 -63 -2 -96 5 -99 19 -2 12 -5 13 -15 3z"/>
<path d="M417 1186 c10 -12 18 -22 19 -24 1 -2 4 4 7 12 4 9 1 15 -6 13 -7 -1
-11 3 -10 9 1 6 -5 11 -13 11 -11 0 -11 -4 3 -21z"/>
<path d="M550 1193 c0 -6 9 -18 20 -28 11 -10 22 -26 25 -36 4 -11 11 -16 17
-13 7 4 6 9 -2 14 -17 11 -4 44 14 37 8 -3 17 1 20 9 3 9 -1 14 -13 14 -10 0
-33 3 -50 6 -18 4 -31 2 -31 -3z"/>
<path d="M332 1169 c-35 -55 26 -120 71 -75 11 11 17 12 26 3 15 -15 14 -5 -4
29 -14 27 -15 27 -15 6 0 -30 -24 -38 -55 -18 -31 20 -32 44 -3 55 16 6 18 9
6 13 -8 4 -20 -2 -26 -13z"/>
<path d="M1520 1136 c0 -14 5 -28 12 -32 7 -4 8 -3 4 4 -4 7 -1 12 8 12 22 0
20 13 -4 28 -18 11 -20 10 -20 -12z"/>
<path d="M500 1098 l-20 -33 40 -13 c22 -8 40 -19 40 -25 1 -18 29 35 30 55 0
18 -36 48 -57 48 -7 0 -22 -15 -33 -32z m70 -13 c7 -9 10 -18 7 -22 -8 -8 -67
17 -67 28 0 15 47 10 60 -6z"/>
<path d="M1491 1093 c-8 -13 -10 -14 -11 -4 0 8 -3 12 -6 9 -8 -9 19 -48 33
-48 7 0 13 5 13 11 0 5 -4 8 -9 4 -5 -3 -12 -1 -16 5 -6 9 8 15 29 11 5 -1 4
5 -4 13 -16 20 -17 20 -29 -1z"/>
<path d="M341 1049 c-24 -5 -45 -10 -47 -12 -2 -2 11 -18 30 -36 24 -24 36
-29 41 -20 5 7 4 10 -2 6 -6 -4 -19 3 -29 15 -16 18 -17 21 -2 15 9 -3 19 -1
22 6 3 9 7 9 14 -1 7 -11 11 -8 15 9 4 13 5 24 4 24 -1 1 -22 -2 -46 -6z"/>
<path d="M1470 1043 c0 -13 -4 -23 -10 -23 -5 0 -10 -5 -10 -11 0 -5 4 -8 9
-4 5 3 13 0 17 -6 4 -8 3 -9 -4 -5 -7 4 -12 2 -12 -4 0 -6 -4 -8 -10 -5 -5 3
-10 0 -10 -7 0 -9 -3 -9 -10 2 -5 8 -10 11 -10 5 0 -5 5 -17 10 -25 9 -13 12
-13 21 3 5 9 16 17 23 17 8 0 16 8 20 18 3 9 9 24 12 32 4 8 3 12 -1 8 -4 -4
-14 0 -21 10 -12 16 -13 15 -14 -5z"/>
<path d="M489 974 c-7 -9 -21 -13 -32 -10 -19 5 -19 4 -4 -11 8 -9 21 -13 29
-9 40 21 57 34 51 39 -11 12 -30 8 -44 -9z"/>
<path d="M256 964 c-4 -9 -4 -19 -1 -22 3 -3 5 -3 5 1 0 3 19 0 41 -8 51 -18
46 -18 51 3 4 13 -2 17 -29 19 -19 1 -40 7 -48 13 -9 8 -14 6 -19 -6z"/>
<path d="M1452 950 c-7 -11 -18 -17 -27 -14 -16 7 -19 -17 -6 -50 6 -17 9 -15
20 13 12 27 16 30 30 19 14 -11 14 -11 3 3 -7 9 -10 24 -6 33 8 22 1 20 -14
-4z"/>
<path d="M520 935 c-7 -9 -8 -15 -2 -15 5 0 12 7 16 15 3 8 4 15 2 15 -2 0 -9
-7 -16 -15z"/>
<path d="M1363 914 c-4 -10 2 -32 13 -53 19 -36 44 -47 52 -23 2 7 -2 10 -11
7 -18 -7 -34 12 -41 50 l-6 30 12 -27 c7 -16 15 -28 19 -28 11 0 -2 38 -17 51
-11 9 -15 7 -21 -7z"/>
<path d="M245 910 c-3 -6 1 -7 9 -4 18 7 21 14 7 14 -6 0 -13 -4 -16 -10z"/>
<path d="M432 908 c-15 -15 -15 -51 0 -66 19 -19 66 -15 78 7 14 27 13 37 -6
55 -18 19 -55 21 -72 4z m63 -21 c33 -25 -5 -48 -49 -31 -9 3 -16 15 -16 25 0
23 37 26 65 6z"/>
<path d="M231 874 c-2 -41 59 -70 87 -42 19 19 14 30 -7 18 -25 -13 -68 2 -74
27 -4 15 -5 15 -6 -3z"/>
<path d="M400 813 c0 -22 24 -36 65 -37 18 -1 35 11 35 24 0 3 -19 6 -41 7
-23 0 -46 7 -50 15 -6 9 -9 7 -9 -9z"/>
<path d="M226 794 c-21 -20 -20 -23 4 -17 33 9 70 -5 70 -27 0 -23 -37 -28
-71 -10 -19 11 -25 4 -11 -16 25 -36 92 -14 92 31 0 23 -32 55 -57 55 -6 0
-19 -7 -27 -16z"/>
<path d="M1344 783 c3 -10 -2 -31 -9 -48 -10 -19 -13 -22 -9 -7 7 27 -4 64
-17 57 -5 -4 -9 -14 -9 -23 0 -15 2 -15 10 -2 8 12 10 11 10 -7 0 -12 -5 -25
-11 -28 -14 -9 -6 -30 12 -30 16 0 42 43 33 56 -3 5 2 9 10 9 9 0 16 9 16 20
0 14 -7 20 -21 20 -15 0 -19 -5 -15 -17z"/>
<path d="M390 750 c0 -14 10 -19 43 -22 23 -3 45 0 49 6 12 17 9 26 -6 20 -8
-3 -30 -1 -50 4 -32 9 -36 8 -36 -8z"/>
<path d="M465 690 c3 -5 8 -10 11 -10 2 0 4 5 4 10 0 6 -5 10 -11 10 -5 0 -7
-4 -4 -10z"/>
<path d="M200 680 c0 -5 7 -7 15 -4 8 4 15 8 15 10 0 2 -7 4 -15 4 -8 0 -15
-4 -15 -10z"/>
<path d="M228 660 c-34 -39 -15 -51 23 -14 25 24 31 26 39 14 5 -8 10 -10 10
-4 0 13 -21 34 -35 34 -6 0 -22 -13 -37 -30z"/>
<path d="M1292 668 c2 -13 9 -22 17 -20 8 2 18 -3 23 -10 6 -8 7 -4 2 12 -11
41 -48 56 -42 18z m28 -2 c0 -3 -4 -8 -10 -11 -5 -3 -10 -1 -10 4 0 6 5 11 10
11 6 0 10 -2 10 -4z"/>
<path d="M377 653 c-13 -13 -7 -21 13 -16 11 3 33 0 50 -5 27 -10 30 -9 30 9
0 16 -7 19 -43 19 -24 0 -47 -3 -50 -7z"/>
<path d="M1267 644 c-8 -8 4 -44 15 -44 5 0 7 4 3 9 -3 5 2 11 10 13 13 2 12
5 -4 15 -10 6 -21 10 -24 7z"/>
<path d="M270 630 c-13 -8 -12 -10 3 -10 9 0 17 5 17 10 0 12 -1 12 -20 0z"/>
<path d="M1230 618 c0 -10 -4 -18 -10 -18 -5 0 -10 -7 -10 -15 0 -8 -4 -15
-10 -15 -5 0 -10 -12 -9 -27 l1 -28 7 25 8 25 13 -27 c16 -35 34 -37 18 -3 -6
14 -16 25 -21 25 -5 0 -4 7 3 15 7 8 18 15 24 15 6 0 5 -4 -3 -9 -10 -7 -11
-13 -2 -30 16 -29 25 -26 16 6 -5 23 -4 25 9 14 11 -9 16 -10 16 -2 0 6 -4 11
-10 11 -5 0 -16 12 -24 28 -11 19 -15 22 -16 10z"/>
<path d="M370 603 c0 -20 5 -23 44 -23 26 0 46 5 49 13 3 9 -6 11 -35 8 -27
-2 -43 1 -49 10 -6 10 -9 8 -9 -8z"/>
<path d="M194 585 c-8 -21 3 -45 20 -45 9 0 23 11 32 25 21 32 38 32 31 -1 -3
-16 -1 -22 5 -16 16 16 4 47 -19 50 -14 2 -26 -4 -33 -17 -14 -27 -34 -27 -27
-1 6 23 -1 27 -9 5z"/>
<path d="M370 543 c0 -10 4 -14 8 -8 4 6 11 13 16 18 5 4 2 7 -7 7 -10 0 -17
-8 -17 -17z"/>
<path d="M410 530 c0 -5 -9 -10 -20 -10 -11 0 -20 -7 -20 -15 0 -11 12 -15 45
-15 33 0 45 4 45 15 0 8 -9 15 -21 15 -11 0 -17 5 -14 10 3 6 1 10 -4 10 -6 0
-11 -4 -11 -10z"/>
<path d="M236 500 c-29 -17 -43 -29 -35 -32 8 -3 22 -1 32 4 10 5 17 5 17 -1
0 -5 -4 -11 -10 -13 -5 -1 4 -11 20 -20 29 -17 30 -17 30 5 0 17 -2 19 -10 7
-8 -12 -10 -12 -15 2 -8 20 2 41 16 33 5 -4 9 5 9 19 0 14 -1 26 -2 25 -2 -1
-25 -14 -52 -29z"/>
<path d="M520 10 c0 -5 5 -10 11 -10 5 0 7 5 4 10 -3 6 -8 10 -11 10 -2 0 -4
-4 -4 -10z"/>
</g>
</svg>
